<?xml version="1.0" standalone="no"?>
<!DOCTYPE svg PUBLIC "-//W3C//DTD SVG 20010904//EN"
 "http://www.w3.org/TR/2001/REC-SVG-20010904/DTD/svg10.dtd">
<svg version="1.0" xmlns="http://www.w3.org/2000/svg"
 width="512.000000pt" height="512.000000pt" viewBox="0 0 512.000000 512.000000"
 preserveAspectRatio="xMidYMid meet">
<metadata>
Created by potrace 1.14, written by Peter Selinger 2001-2017
</metadata>
<g transform="translate(0.000000,512.000000) scale(0.100000,-0.100000)"
fill="#000000" stroke="none">
<path d="M2379 5116 c-2 -2 -38 -6 -79 -10 -64 -6 -213 -30 -315 -51 -201 -42
-477 -149 -682 -265 -293 -166 -508 -351 -760 -653 -44 -53 -170 -244 -219
-332 -171 -308 -276 -639 -312 -985 -14 -140 -7 -504 12 -615 3 -16 8 -43 10
-60 55 -377 232 -789 483 -1123 264 -352 599 -613 1053 -820 95 -43 326 -114
383 -117 107 -6 207 52 257 151 24 48 25 54 25 269 0 215 -1 221 -25 270 -32
63 -92 125 -150 152 -45 21 -78 27 -189 38 -108 10 -207 76 -280 185 -21 30
-69 113 -107 184 -120 224 -182 272 -339 264 -91 -5 -118 -17 -159 -71 -26
-35 -30 -112 -9 -156 21 -43 74 -82 120 -88 46 -6 85 -28 103 -57 8 -11 45
-81 82 -155 102 -200 171 -288 277 -355 54 -35 145 -64 219 -71 84 -8 108 -18
127 -56 23 -43 13 -92 -24 -119 -38 -27 -57 -25 -145 9 -513 204 -944 602
-1183 1092 -120 246 -192 490 -220 749 -15 132 -8 470 11 565 2 11 9 54 16 95
18 110 73 295 126 423 212 520 614 944 1118 1181 54 25 100 46 103 46 3 0 19
7 36 15 49 22 205 72 299 94 172 40 298 55 488 55 169 1 342 -8 359 -19 4 -2
28 -6 53 -9 157 -19 400 -98 598 -194 74 -36 137 -69 138 -74 2 -4 8 -8 13 -8
12 0 172 -106 254 -168 79 -60 297 -278 367 -367 262 -331 435 -752 476 -1158
9 -94 9 -383 0 -472 -15 -136 -56 -330 -96 -450 -9 -27 -17 -52 -17 -55 -3 -8
-15 -40 -57 -140 -41 -97 -106 -224 -139 -272 -11 -14 -19 -31 -19 -37 0 -6
-4 -11 -10 -11 -5 0 -10 -4 -10 -10 0 -30 -202 -279 -317 -391 -196 -190 -459
-365 -697 -463 -78 -32 -149 -12 -200 57 -20 27 -21 42 -24 345 -2 208 1 330
8 354 13 47 59 93 107 109 41 13 199 88 248 117 278 163 493 429 567 702 22
80 23 104 23 375 0 208 -4 306 -13 345 -21 85 -61 188 -102 265 l-38 71 -4
294 c-4 276 -5 299 -26 351 -48 122 -145 190 -277 195 -43 2 -93 -2 -120 -10
-25 -8 -49 -15 -53 -15 -40 -5 -98 -35 -322 -163 -108 -62 -118 -66 -160 -60
-50 8 -885 10 -965 3 -47 -5 -57 -1 -180 71 -255 148 -340 179 -473 174 -132
-6 -225 -72 -274 -195 -21 -52 -22 -75 -26 -349 l-4 -294 -48 -95 c-95 -184
-109 -265 -106 -603 1 -146 5 -276 9 -290 4 -14 9 -38 13 -55 10 -52 45 -146
78 -209 78 -150 160 -249 305 -375 106 -91 153 -107 227 -76 64 27 98 77 97
146 -1 67 -17 91 -108 164 -133 106 -226 234 -276 377 -20 56 -23 90 -27 300
-6 314 11 392 113 548 l43 65 4 221 3 221 29 37 c36 48 84 69 146 63 59 -6
103 -26 259 -116 l124 -71 76 14 c61 12 160 15 506 12 237 -1 441 -5 455 -9
72 -19 75 -19 166 34 220 128 264 146 338 135 58 -9 108 -51 124 -104 8 -24
12 -115 12 -239 l0 -199 29 -40 c42 -58 75 -121 101 -194 22 -61 24 -81 27
-315 3 -277 -2 -317 -57 -440 -17 -38 -34 -72 -38 -75 -4 -3 -19 -23 -34 -45
-98 -147 -292 -287 -515 -370 -81 -31 -123 -58 -181 -116 -56 -56 -86 -108
-111 -188 -18 -59 -20 -94 -21 -405 0 -210 4 -364 11 -401 31 -169 169 -319
337 -369 36 -10 84 -14 145 -12 80 2 104 7 182 40 104 43 318 154 323 167 2 5
8 9 14 9 22 0 297 200 364 265 11 11 36 34 55 51 37 33 168 170 211 221 230
271 422 644 514 998 60 232 79 386 79 640 0 193 -3 251 -16 330 -4 28 -10 66
-13 85 -2 19 -10 60 -16 90 -6 30 -14 66 -16 80 -3 14 -16 64 -30 112 -181
646 -608 1192 -1199 1532 -153 89 -359 179 -505 222 -65 19 -252 65 -280 69
-19 3 -46 8 -60 10 -14 3 -41 7 -60 10 -19 3 -53 7 -75 11 -46 6 -460 16 -466
10z"/>
<path d="M2015 1586 c-103 -46 -125 -190 -40 -265 66 -57 167 -51 224 14 65
74 49 185 -35 240 -35 23 -111 29 -149 11z"/>
</g>
</svg>
